<svg width="68" height="68" viewBox="0 0 68 68" fill="none" xmlns="http://www.w3.org/2000/svg">
<circle cx="33.7832" cy="33.7832" r="33.7832" fill="#339989"/>
<g clip-path="url(#clip0)">
<path d="M33.7828 36.1966C39.1176 36.1966 43.4427 30.9435 43.4427 24.4635C43.4427 17.9833 42.0227 12.7302 33.7828 12.7302C25.5429 12.7302 24.1227 17.9833 24.1227 24.4635C24.1227 30.9435 28.4478 36.1966 33.7828 36.1966Z" fill="#27786B"/>
<path d="M15.5374 54.1118C15.5358 53.7166 15.5341 54.0004 15.5374 54.1118V54.1118Z" fill="#27786B"/>
<path d="M52.0281 54.4202C52.0333 54.312 52.0299 53.6697 52.0281 54.4202V54.4202Z" fill="#27786B"/>
<path d="M52.0075 53.6378C51.8286 42.3495 50.3543 39.1329 39.0726 37.0968C39.0726 37.0968 37.4846 39.1204 33.7831 39.1204C30.0816 39.1204 28.4933 37.0968 28.4933 37.0968C17.3347 39.1107 15.7708 42.2795 15.5652 53.2711C15.5483 54.1687 15.5405 54.2158 15.5375 54.1116C15.5382 54.3068 15.539 54.6679 15.539 55.2976C15.539 55.2976 18.2249 60.7122 33.7831 60.7122C49.3411 60.7122 52.0272 55.2976 52.0272 55.2976C52.0272 54.893 52.0275 54.6117 52.0279 54.4204C52.0249 54.4848 52.0189 54.3599 52.0075 53.6378Z" fill="#27786B"/>
</g>
<defs>
<clipPath id="clip0">
<rect width="47.982" height="47.982" fill="white" transform="translate(9.79199 12.7299)"/>
</clipPath>
</defs>
</svg>
