<svg width="88" height="84" viewBox="0 0 88 84" fill="none" xmlns="http://www.w3.org/2000/svg">
<circle cx="44.7832" cy="33.7832" r="33.7832" fill="#339989"/>
<g clip-path="url(#clip0)">
<path d="M44.7829 36.1966C50.1177 36.1966 54.4428 30.9435 54.4428 24.4635C54.4428 17.9833 53.0228 12.7302 44.7829 12.7302C36.5431 12.7302 35.1228 17.9833 35.1228 24.4635C35.1228 30.9435 39.4479 36.1966 44.7829 36.1966Z" fill="#27786B"/>
<path d="M26.5375 54.1118C26.5359 53.7166 26.5343 54.0004 26.5375 54.1118V54.1118Z" fill="#27786B"/>
<path d="M63.0283 54.4202C63.0335 54.312 63.0301 53.6697 63.0283 54.4202V54.4202Z" fill="#27786B"/>
<path d="M63.0076 53.638C62.8287 42.3496 61.3544 39.133 50.0728 37.0969C50.0728 37.0969 48.4847 39.1205 44.7832 39.1205C41.0818 39.1205 39.4934 37.0969 39.4934 37.0969C28.3349 39.1108 26.7709 42.2797 26.5653 53.2712C26.5484 54.1688 26.5406 54.2159 26.5376 54.1117C26.5383 54.307 26.5391 54.6681 26.5391 55.2977C26.5391 55.2977 29.225 60.7123 44.7832 60.7123C60.3412 60.7123 63.0274 55.2977 63.0274 55.2977C63.0274 54.8932 63.0276 54.6119 63.028 54.4205C63.025 54.4849 63.019 54.36 63.0076 53.638Z" fill="#27786B"/>
</g>
<path d="M21.714 82.426V73.326C21.714 73.1393 21.8027 72.9993 21.98 72.906C22.1574 72.8127 22.372 72.766 22.624 72.766C22.876 72.766 23.0907 72.8127 23.268 72.906C23.4454 72.9993 23.534 73.1393 23.534 73.326V81.404H26.95C27.118 81.404 27.2487 81.4833 27.342 81.642C27.4447 81.8007 27.496 81.9873 27.496 82.202C27.496 82.4167 27.4447 82.6033 27.342 82.762C27.2487 82.9207 27.118 83 26.95 83H22.512C22.2974 83 22.1107 82.9487 21.952 82.846C21.7934 82.7433 21.714 82.6033 21.714 82.426ZM28.2192 79.878V75.972C28.2192 74.8613 28.5132 74.0493 29.1012 73.536C29.6985 73.0227 30.4965 72.766 31.4952 72.766C32.4939 72.766 33.2919 73.0227 33.8892 73.536C34.4865 74.0493 34.7852 74.8613 34.7852 75.972V79.878C34.7852 80.9887 34.4865 81.8007 33.8892 82.314C33.2919 82.8273 32.4939 83.084 31.4952 83.084C30.4965 83.084 29.6985 82.8273 29.1012 82.314C28.5132 81.8007 28.2192 80.9887 28.2192 79.878ZM30.0392 79.878C30.0392 80.9513 30.5245 81.488 31.4952 81.488C32.4752 81.488 32.9652 80.9513 32.9652 79.878V75.972C32.9652 74.8987 32.4752 74.362 31.4952 74.362C30.5245 74.362 30.0392 74.8987 30.0392 75.972V79.878ZM36.2309 79.878V75.972C36.2309 74.8707 36.5249 74.0633 37.1129 73.55C37.7103 73.0273 38.4896 72.766 39.4509 72.766C40.4403 72.766 41.2429 73.0087 41.8589 73.494C42.4843 73.9793 42.7969 74.6327 42.7969 75.454C42.7969 75.79 42.7223 76.0187 42.5729 76.14C42.4329 76.2613 42.2043 76.322 41.8869 76.322C41.2896 76.322 40.9863 76.1307 40.9769 75.748C40.9489 75.3373 40.8323 75.006 40.6269 74.754C40.4216 74.4927 40.0529 74.362 39.5209 74.362C38.5409 74.362 38.0509 74.8987 38.0509 75.972V79.878C38.0509 80.9513 38.5363 81.488 39.5069 81.488C39.9736 81.488 40.3329 81.3527 40.5849 81.082C40.8463 80.8113 40.9769 80.41 40.9769 79.878V79.052H39.8429C39.6656 79.052 39.5256 78.982 39.4229 78.842C39.3296 78.702 39.2829 78.534 39.2829 78.338C39.2829 78.1513 39.3343 77.988 39.4369 77.848C39.5396 77.6987 39.6749 77.624 39.8429 77.624H42.2229C42.4003 77.624 42.5403 77.6847 42.6429 77.806C42.7456 77.918 42.7969 78.0533 42.7969 78.212V79.878C42.7969 80.9887 42.4983 81.8007 41.9009 82.314C41.3036 82.8273 40.5056 83.084 39.5069 83.084C38.5083 83.084 37.7103 82.8273 37.1129 82.314C36.5249 81.8007 36.2309 80.9887 36.2309 79.878ZM44.1333 79.878V75.972C44.1333 74.8613 44.4273 74.0493 45.0153 73.536C45.6126 73.0227 46.4106 72.766 47.4093 72.766C48.4079 72.766 49.2059 73.0227 49.8033 73.536C50.4006 74.0493 50.6993 74.8613 50.6993 75.972V79.878C50.6993 80.9887 50.4006 81.8007 49.8033 82.314C49.2059 82.8273 48.4079 83.084 47.4093 83.084C46.4106 83.084 45.6126 82.8273 45.0153 82.314C44.4273 81.8007 44.1333 80.9887 44.1333 79.878ZM45.9533 79.878C45.9533 80.9513 46.4386 81.488 47.4093 81.488C48.3893 81.488 48.8793 80.9513 48.8793 79.878V75.972C48.8793 74.8987 48.3893 74.362 47.4093 74.362C46.4386 74.362 45.9533 74.8987 45.9533 75.972V79.878ZM52.215 79.878V73.326C52.215 73.1393 52.3037 72.9993 52.481 72.906C52.6583 72.8127 52.873 72.766 53.125 72.766C53.377 72.766 53.5917 72.8127 53.769 72.906C53.9463 72.9993 54.035 73.1393 54.035 73.326V79.878C54.035 80.9513 54.5483 81.488 55.575 81.488C56.6017 81.488 57.115 80.9513 57.115 79.878V73.326C57.115 73.1393 57.2037 72.9993 57.381 72.906C57.5583 72.8127 57.773 72.766 58.025 72.766C58.277 72.766 58.4917 72.8127 58.669 72.906C58.8463 72.9993 58.935 73.1393 58.935 73.326V79.878C58.935 80.9793 58.627 81.7913 58.011 82.314C57.4043 82.8273 56.5923 83.084 55.575 83.084C54.5577 83.084 53.741 82.8273 53.125 82.314C52.5183 81.8007 52.215 80.9887 52.215 79.878ZM59.8975 73.578C59.8975 73.3633 59.9442 73.1767 60.0375 73.018C60.1402 72.85 60.2848 72.766 60.4715 72.766H66.3935C66.5802 72.766 66.7202 72.85 66.8135 73.018C66.9162 73.1767 66.9675 73.3633 66.9675 73.578C66.9675 73.802 66.9162 73.998 66.8135 74.166C66.7108 74.3247 66.5708 74.404 66.3935 74.404H64.3495V82.426C64.3495 82.6033 64.2562 82.7433 64.0695 82.846C63.8922 82.9487 63.6822 83 63.4395 83C63.1875 83 62.9728 82.9487 62.7955 82.846C62.6182 82.7433 62.5295 82.6033 62.5295 82.426V74.404H60.4715C60.2942 74.404 60.1542 74.3247 60.0515 74.166C59.9488 74.0073 59.8975 73.8113 59.8975 73.578Z" fill="#023C40"/>
<defs>
<clipPath id="clip0">
<rect width="47.982" height="47.982" fill="white" transform="translate(20.792 12.7297)"/>
</clipPath>
</defs>
</svg>
