<svg width="342" height="106" viewBox="0 0 342 106" fill="none" xmlns="http://www.w3.org/2000/svg">
<path d="M29.0833 23.8671C30.3453 19.7631 30.9763 10.229 23.4042 4.92525C21.1957 3.34676 13.9392 1.13688 2.58105 4.92525C2.58105 9.02933 4.66337 18.1846 12.9926 21.973C15.2012 23.2357 21.5112 25.3825 29.0833 23.8671ZM29.0833 23.8671C27.8213 21.0259 23.4042 14.5856 15.8322 11.5549M29.0833 23.8671C30.3668 25.2872 32.9778 29.4031 33.1537 34.5059M29.0833 23.8671C30.8067 20.0085 35.8811 11.5874 44.1511 13.171C46.0573 13.391 49.9577 16.0303 48.55 20.4293C48.0368 22.1155 45.8667 24.6523 41.2918 21.3091" stroke="#7CC91E" stroke-width="3.67488" stroke-linecap="round" stroke-linejoin="round"/>
<path d="M331.856 88.6193V90.4568H331.94L332.023 90.4492L331.856 88.6193ZM338.727 98.067L336.945 97.6213L338.727 98.067ZM327.525 100.718C326.617 100.264 325.514 100.632 325.06 101.54C324.606 102.447 324.974 103.551 325.881 104.005L327.525 100.718ZM30.1436 90.4568H331.856V86.7819H30.1436V90.4568ZM332.023 90.4492C333.391 90.3249 335.056 90.5568 336.103 91.4279C336.962 92.1417 337.917 93.7321 336.945 97.6213L340.51 98.5126C341.685 93.8131 340.779 90.5365 338.453 88.6021C336.316 86.825 333.471 86.6275 331.69 86.7894L332.023 90.4492ZM336.945 97.6213C336.506 99.3779 335.498 100.783 334.094 101.456C332.733 102.11 330.609 102.26 327.525 100.718L325.881 104.005C329.668 105.898 333.02 106.048 335.684 104.769C338.307 103.511 339.876 101.05 340.51 98.5126L336.945 97.6213Z" fill="#7CC91E"/>
<path d="M36.2923 39.8278H35.1898V42.7187C36.3821 42.98 37.1252 43.2985 37.4192 43.6742L37.1742 45.7076H30.5594L30.3145 43.6742C30.5268 43.3965 30.9759 43.127 31.6619 42.8657V31.6696C30.9923 31.4246 30.5431 31.1469 30.3145 30.8366L30.5594 28.8032H37.0517C39.322 28.8358 41.0125 29.2523 42.1231 30.0526C43.25 30.8366 43.8135 32.2412 43.8135 34.2665C43.8135 37.974 41.3064 39.8278 36.2923 39.8278ZM36.6598 31.4736H35.1898V37.1574H36.8312C37.9419 37.1574 38.7667 36.9369 39.3057 36.4959C39.861 36.0549 40.1386 35.2955 40.1386 34.2175C40.1386 33.1232 39.8365 32.3964 39.2322 32.0371C38.6442 31.6614 37.7867 31.4736 36.6598 31.4736Z" fill="#002626"/>
<path d="M56.6375 45.7076H45.4169L45.1719 43.6742C45.3842 43.3965 45.8334 43.127 46.5194 42.8657V31.6696C45.8497 31.4246 45.4006 31.1469 45.1719 30.8366L45.4169 28.8032H51.1497L51.3947 30.8366C51.1334 31.1469 50.6842 31.4246 50.0472 31.6696V43.0372H53.9181C54.1304 42.1879 54.4326 41.5836 54.8246 41.2243L56.6375 41.4448V45.7076Z" fill="#002626"/>
<path d="M66.5033 28.6807L71.3786 42.8167C72.0646 43.0617 72.5464 43.3475 72.8241 43.6742L72.5791 45.7076H66.8462L66.6013 43.6742C66.7972 43.4129 67.1892 43.1679 67.7772 42.9392L67.1157 40.8813H62.2159L61.6034 42.8657C62.1751 43.0944 62.5997 43.3639 62.8774 43.6742L62.6324 45.7076H57.0466L56.8016 43.6742C57.0956 43.2985 57.6427 42.9882 58.443 42.7432L63.1469 28.6807H66.5033ZM64.4698 32.1106C64.4698 33.1069 64.2657 34.2665 63.8573 35.5894L62.9019 38.6274H66.4053L65.4743 35.6384C65.0986 34.4951 64.8863 33.458 64.8373 32.527L64.8128 32.1106H64.4698Z" fill="#002626"/>
<path d="M77.4674 36.4714V42.9147C78.0717 43.1434 78.5209 43.4455 78.8149 43.8212L78.5699 45.7076H73.768L73.5231 43.8212C73.817 43.4455 74.2662 43.1434 74.8705 42.9147V31.5961C74.2009 31.3511 73.7354 31.0489 73.4741 30.6896L73.719 28.8032H78.7659L83.6412 38.3089C84.0006 38.9948 84.3517 39.9095 84.6947 41.0528L84.8662 41.6408L85.1357 41.5428C84.907 40.1218 84.7927 38.9295 84.7927 37.9659V31.6206C84.2047 31.3919 83.7556 31.0816 83.4452 30.6896L83.6902 28.8032H88.4921L88.7371 30.6896C88.4268 31.0816 87.9776 31.3919 87.3896 31.6206V45.7076H83.5432L78.6189 36.1284C78.2596 35.4425 77.9084 34.5196 77.5654 33.36L77.3939 32.7965L77.1244 32.8945C77.3531 34.3155 77.4674 35.5078 77.4674 36.4714Z" fill="#002626"/>
<path d="M101.692 45.7076H90.3242L90.0792 43.6742C90.2915 43.3965 90.7407 43.127 91.4266 42.8657V31.6696C90.757 31.4246 90.3078 31.1469 90.0792 30.8366L90.3242 28.8032H101.496V33.066L99.6829 33.2865C99.3072 32.9599 99.0051 32.3555 98.7764 31.4736H94.9545V35.6874H98.3599C98.5559 35.1975 98.7601 34.8545 98.9724 34.6585L100.516 34.83V39.1908L98.9724 39.3868C98.7601 39.2235 98.5559 38.8805 98.3599 38.3579H94.9545V43.0372H98.9724C99.1847 42.1879 99.4869 41.5836 99.8789 41.2243L101.692 41.4448V45.7076Z" fill="#002626"/>
<path d="M116.417 28.8277V32.3311L114.874 32.527C114.662 32.3637 114.457 32.0207 114.261 31.4981H111.322V42.8657C111.975 43.127 112.424 43.3965 112.669 43.6742L112.424 45.7076H106.691L106.446 43.6742C106.659 43.3965 107.108 43.127 107.794 42.8657V31.4981H104.854C104.658 32.0207 104.454 32.3637 104.241 32.527L102.698 32.3311V28.8277H116.417Z" fill="#002626"/>
<path d="M134.321 28.8032V33.066L132.508 33.2865C132.132 32.9599 131.83 32.3555 131.602 31.4736H127.78V35.9324H131.185C131.381 35.4425 131.585 35.0995 131.798 34.9035L133.341 35.075V39.4358L131.798 39.6318C131.585 39.4685 131.381 39.1255 131.185 38.6029H127.78V42.6697C128.874 42.9147 129.666 43.2495 130.156 43.6742L129.911 45.7076H123.149L122.904 43.6742C123.117 43.3965 123.566 43.127 124.252 42.8657V31.6696C123.582 31.4246 123.133 31.1469 122.904 30.8366L123.149 28.8032H134.321Z" fill="#002626"/>
<path d="M148.982 33.752C148.982 34.8626 148.631 35.7936 147.929 36.5449C147.243 37.2962 146.377 37.8679 145.332 38.2599C146.148 38.6029 146.687 39.0193 146.949 39.5093L148.737 42.9147C149.505 43.176 150.028 43.4782 150.305 43.8212L150.06 45.7076H145.92L143.102 39.7053C142.841 39.101 142.539 38.7988 142.196 38.7988H140.603V42.7187C141.796 42.98 142.539 43.2985 142.833 43.6742L142.588 45.7076H135.973L135.728 43.6742C135.94 43.3965 136.39 43.127 137.076 42.8657V31.6696C136.406 31.4246 135.957 31.1469 135.728 30.8366L135.973 28.8032H142.22C144.507 28.8358 146.206 29.2033 147.316 29.9056C148.427 30.6079 148.982 31.8901 148.982 33.752ZM142.049 31.4736H140.603V36.1284H142C143.111 36.1284 143.935 35.9651 144.474 35.6384C145.03 35.2955 145.307 34.6911 145.307 33.8255C145.307 32.9599 145.03 32.3555 144.474 32.0126C143.919 31.6532 143.111 31.4736 142.049 31.4736Z" fill="#002626"/>
<path d="M157.09 28.8032L157.335 30.8366C157.073 31.1469 156.624 31.4246 155.987 31.6696V42.8657C156.641 43.127 157.09 43.3965 157.335 43.6742L157.09 45.7076H151.357L151.112 43.6742C151.324 43.3965 151.773 43.127 152.459 42.8657V31.6696C151.79 31.4246 151.341 31.1469 151.112 30.8366L151.357 28.8032H157.09Z" fill="#002626"/>
<path d="M170.524 45.7076H159.156L158.911 43.6742C159.124 43.3965 159.573 43.127 160.259 42.8657V31.6696C159.589 31.4246 159.14 31.1469 158.911 30.8366L159.156 28.8032H170.328V33.066L168.515 33.2865C168.14 32.9599 167.837 32.3555 167.609 31.4736H163.787V35.6874H167.192C167.388 35.1975 167.592 34.8545 167.805 34.6585L169.348 34.83V39.1908L167.805 39.3868C167.592 39.2235 167.388 38.8805 167.192 38.3579H163.787V43.0372H167.805C168.017 42.1879 168.319 41.5836 168.711 41.2243L170.524 41.4448V45.7076Z" fill="#002626"/>
<path d="M176.062 36.4714V42.9147C176.667 43.1434 177.116 43.4455 177.41 43.8212L177.165 45.7076H172.363L172.118 43.8212C172.412 43.4455 172.861 43.1434 173.466 42.9147V31.5961C172.796 31.3511 172.33 31.0489 172.069 30.6896L172.314 28.8032H177.361L182.236 38.3089C182.596 38.9948 182.947 39.9095 183.29 41.0528L183.461 41.6408L183.731 41.5428C183.502 40.1218 183.388 38.9295 183.388 37.9659V31.6206C182.8 31.3919 182.351 31.0816 182.04 30.6896L182.285 28.8032H187.087L187.332 30.6896C187.022 31.0816 186.573 31.3919 185.985 31.6206V45.7076H182.138L177.214 36.1284C176.855 35.4425 176.503 34.5196 176.16 33.36L175.989 32.7965L175.719 32.8945C175.948 34.3155 176.062 35.5078 176.062 36.4714Z" fill="#002626"/>
<path d="M195.167 45.7076H188.919L188.674 43.6742C188.887 43.3965 189.336 43.127 190.022 42.8657V31.6696C189.352 31.4246 188.903 31.1469 188.674 30.8366L188.919 28.8032H194.383C197.012 28.8032 199.095 29.5381 200.63 31.0081C202.181 32.478 202.957 34.6421 202.957 37.5004C202.957 40.3423 202.255 42.4247 200.85 43.7477C199.462 45.0543 197.567 45.7076 195.167 45.7076ZM193.55 43.0372H195.313C196.538 43.0372 197.502 42.6697 198.204 41.9347C198.923 41.1834 199.282 39.738 199.282 37.5984C199.282 33.5152 197.739 31.4736 194.652 31.4736H193.55V43.0372Z" fill="#002626"/>
<path d="M215.883 45.7076H204.662L204.417 43.6742C204.629 43.3965 205.078 43.127 205.764 42.8657V31.6696C205.095 31.4246 204.646 31.1469 204.417 30.8366L204.662 28.8032H210.395L210.64 30.8366C210.378 31.1469 209.929 31.4246 209.292 31.6696V43.0372H213.163C213.375 42.1879 213.678 41.5836 214.07 41.2243L215.883 41.4448V45.7076Z" fill="#002626"/>
<path d="M224.301 45.7076H218.569L218.324 43.6742C218.536 43.3965 218.985 43.127 219.671 42.8657V40.0483L215.678 31.7431C214.91 31.4817 214.387 31.1796 214.11 30.8366L214.33 28.9257V28.9012L214.355 28.8032H220.088L220.333 30.8366C220.137 31.1143 219.761 31.3592 219.206 31.5716L220.039 33.458C220.512 34.536 220.921 35.6058 221.264 36.6674L221.435 37.1574H221.803C222.146 35.9651 222.595 34.732 223.15 33.458L223.934 31.6696C223.281 31.4082 222.84 31.1306 222.611 30.8366L222.856 28.8032H228.442L228.687 30.8366C228.36 31.2123 227.821 31.5226 227.07 31.7676L223.199 40.0483V42.8657C223.852 43.127 224.301 43.3965 224.546 43.6742L224.301 45.7076Z" fill="#002626"/>
<path d="M58.7274 63.8432C58.7274 62.6999 58.8275 60.9278 59.0275 58.5269L59.1133 57.4979L58.6846 57.455C58.0272 59.8845 57.4555 61.8138 56.9696 63.243L51.2674 80.0066H45.5652L39.5629 63.243C39.0198 61.9567 38.5339 60.3561 38.1052 58.4411L37.848 57.455L37.4192 57.4979C37.6765 60.0417 37.8051 62.1568 37.8051 63.8432V75.119C38.8626 75.5191 39.6487 76.0479 40.1631 76.7053L39.7344 80.0066H31.3312L30.9024 76.7053C31.4169 76.0479 32.2029 75.5191 33.2605 75.119V55.3113C32.0886 54.8826 31.274 54.3538 30.8167 53.725L31.2454 50.4237H41.0206L47.2802 67.7018C48.0805 69.5883 48.595 71.3175 48.8236 72.8895L48.9522 73.6184H49.5525C49.6668 71.8749 50.1813 69.9027 51.0959 67.7018L57.0554 50.4237H66.6591L67.0878 53.725C66.6305 54.3538 65.8159 54.8826 64.644 55.3113V74.9475C65.7587 75.3762 66.5447 75.8764 67.002 76.448L66.5733 80.0066H56.7981L56.3694 76.4909C56.8267 75.9193 57.6127 75.4191 58.7274 74.9903V63.8432Z" fill="#002626"/>
<path d="M90.1207 80.0066H70.2273L69.7985 76.448C70.1701 75.9621 70.9561 75.4905 72.1566 75.0332V55.4399C70.9847 55.0112 70.1987 54.5253 69.7985 53.9822L70.2273 50.4237H89.7777V57.8837L86.605 58.2696C85.9476 57.698 85.4188 56.6404 85.0187 55.097H78.3304V62.4712H84.2898C84.6328 61.6138 84.9901 61.0135 85.3617 60.6705L88.0627 60.9706V68.6022L85.3617 68.9451C84.9901 68.6593 84.6328 68.0591 84.2898 67.1445H78.3304V75.3333H85.3617C85.7333 73.847 86.262 72.7895 86.948 72.1607L90.1207 72.5465V80.0066Z" fill="#002626"/>
<path d="M108.259 50.2094L116.791 74.9475C117.991 75.3762 118.834 75.8764 119.32 76.448L118.892 80.0066H108.859L108.43 76.448C108.773 75.9907 109.459 75.562 110.488 75.1618L109.331 71.5604H100.756L99.6842 75.0332C100.685 75.4334 101.428 75.905 101.914 76.448L101.485 80.0066H91.7097L91.2809 76.448C91.7954 75.7906 92.7529 75.2476 94.1535 74.8188L102.385 50.2094H108.259ZM104.7 56.2117C104.7 57.9552 104.343 59.9846 103.629 62.2997L101.956 67.6161H108.087L106.458 62.3855C105.801 60.3847 105.429 58.5697 105.343 56.9405L105.301 56.2117H104.7Z" fill="#002626"/>
<path d="M140.608 80.0066H120.972L120.544 76.448C120.915 75.9621 121.701 75.4905 122.902 75.0332V55.4399C121.73 55.0112 120.944 54.5253 120.544 53.9822L120.972 50.4237H131.005L131.433 53.9822C130.976 54.5253 130.19 55.0112 129.075 55.4399V75.3333H135.849C136.221 73.847 136.75 72.7895 137.436 72.1607L140.608 72.5465V80.0066Z" fill="#002626"/>
<path d="M162.155 69.7169H160.226V74.776C162.312 75.2333 163.613 75.7906 164.127 76.448L163.699 80.0066H152.123L151.694 76.448C152.065 75.9621 152.852 75.4905 154.052 75.0332V55.4399C152.88 55.0112 152.094 54.5253 151.694 53.9822L152.123 50.4237H163.484C167.457 50.4809 170.415 51.2097 172.359 52.6103C174.331 53.9822 175.317 56.4403 175.317 59.9846C175.317 66.4728 170.93 69.7169 162.155 69.7169ZM162.798 55.097H160.226V65.0436H163.098C165.042 65.0436 166.485 64.6578 167.429 63.8861C168.4 63.1143 168.886 61.7852 168.886 59.8988C168.886 57.9838 168.357 56.7119 167.3 56.0831C166.271 55.4257 164.77 55.097 162.798 55.097Z" fill="#002626"/>
<path d="M197.759 80.0066H178.123L177.694 76.448C178.066 75.9621 178.852 75.4905 180.052 75.0332V55.4399C178.881 55.0112 178.095 54.5253 177.694 53.9822L178.123 50.4237H188.156L188.584 53.9822C188.127 54.5253 187.341 55.0112 186.226 55.4399V75.3333H193C193.372 73.847 193.901 72.7895 194.587 72.1607L197.759 72.5465V80.0066Z" fill="#002626"/>
<path d="M215.024 50.2094L223.556 74.9475C224.757 75.3762 225.6 75.8764 226.086 76.448L225.657 80.0066H215.625L215.196 76.448C215.539 75.9907 216.225 75.562 217.254 75.1618L216.096 71.5604H207.521L206.45 75.0332C207.45 75.4334 208.193 75.905 208.679 76.448L208.25 80.0066H198.475L198.046 76.448C198.561 75.7906 199.518 75.2476 200.919 74.8188L209.151 50.2094H215.024ZM211.466 56.2117C211.466 57.9552 211.109 59.9846 210.394 62.2997L208.722 67.6161H214.853L213.224 62.3855C212.566 60.3847 212.195 58.5697 212.109 56.9405L212.066 56.2117H211.466Z" fill="#002626"/>
<path d="M234.212 63.8432V75.119C235.269 75.5191 236.055 76.0479 236.57 76.7053L236.141 80.0066H227.738L227.309 76.7053C227.823 76.0479 228.609 75.5191 229.667 75.119V55.3113C228.495 54.8826 227.681 54.3538 227.223 53.725L227.652 50.4237H236.484L245.016 67.0587C245.645 68.2592 246.259 69.8598 246.859 71.8606L247.159 72.8895L247.631 72.718C247.231 70.2314 247.031 68.1448 247.031 66.4585V55.3542C246.002 54.954 245.216 54.411 244.673 53.725L245.102 50.4237H253.505L253.934 53.725C253.39 54.411 252.604 54.954 251.575 55.3542V80.0066H244.844L236.227 63.243C235.598 62.0425 234.983 60.4276 234.383 58.3982L234.083 57.4121L233.611 57.5836C234.012 60.0703 234.212 62.1568 234.212 63.8432Z" fill="#002626"/>
<path d="M263.185 63.8432V75.119C264.242 75.5191 265.028 76.0479 265.543 76.7053L265.114 80.0066H256.711L256.282 76.7053C256.797 76.0479 257.583 75.5191 258.64 75.119V55.3113C257.468 54.8826 256.654 54.3538 256.196 53.725L256.625 50.4237H265.457L273.989 67.0587C274.618 68.2592 275.232 69.8598 275.833 71.8606L276.133 72.8895L276.604 72.718C276.204 70.2314 276.004 68.1448 276.004 66.4585V55.3542C274.975 54.954 274.189 54.411 273.646 53.725L274.075 50.4237H282.478L282.907 53.725C282.364 54.411 281.578 54.954 280.549 55.3542V80.0066H273.817L265.2 63.243C264.571 62.0425 263.957 60.4276 263.356 58.3982L263.056 57.4121L262.585 57.5836C262.985 60.0703 263.185 62.1568 263.185 63.8432Z" fill="#002626"/>
<path d="M305.578 80.0066H285.684L285.255 76.448C285.627 75.9621 286.413 75.4905 287.613 75.0332V55.4399C286.442 55.0112 285.656 54.5253 285.255 53.9822L285.684 50.4237H305.234V57.8837L302.062 58.2696C301.404 57.698 300.876 56.6404 300.476 55.097H293.787V62.4712H299.747C300.09 61.6138 300.447 61.0135 300.819 60.6705L303.52 60.9706V68.6022L300.819 68.9451C300.447 68.6593 300.09 68.0591 299.747 67.1445H293.787V75.3333H300.819C301.19 73.847 301.719 72.7895 302.405 72.1607L305.578 72.5465V80.0066Z" fill="#002626"/>
<path d="M331.562 59.0842C331.562 61.0278 330.947 62.657 329.718 63.9718C328.518 65.2866 327.003 66.287 325.173 66.973C326.603 67.5732 327.546 68.302 328.003 69.1595L331.133 75.119C332.476 75.5763 333.391 76.1051 333.877 76.7053L333.448 80.0066H326.202L321.272 69.5025C320.815 68.445 320.286 67.9162 319.686 67.9162H316.899V74.776C318.985 75.2333 320.286 75.7906 320.8 76.448L320.372 80.0066H308.796L308.367 76.448C308.739 75.9621 309.525 75.4905 310.725 75.0332V55.4399C309.553 55.0112 308.767 54.5253 308.367 53.9822L308.796 50.4237H319.728C323.73 50.4809 326.703 51.124 328.646 52.353C330.59 53.5821 331.562 55.8258 331.562 59.0842ZM319.428 55.097H316.899V63.243H319.343C321.286 63.243 322.73 62.9571 323.673 62.3855C324.645 61.7853 325.131 60.7277 325.131 59.2128C325.131 57.698 324.645 56.6404 323.673 56.0402C322.701 55.4114 321.286 55.097 319.428 55.097Z" fill="#002626"/>
</svg>
