<svg width="40" height="35" viewBox="0 0 40 35" fill="none" xmlns="http://www.w3.org/2000/svg">
<path d="M19.9877 17.3977C20.4176 17.3977 20.7666 17.0487 20.7666 16.6188C20.7666 16.1888 20.4176 15.8398 19.9877 15.8398C19.5577 15.8398 19.2087 16.1888 19.2087 16.6188C19.2087 17.0487 19.5577 17.3977 19.9877 17.3977Z" fill="#023C40"/>
<path d="M36.8128 11.1661H32.2063L25.1203 1.41732C24.4838 0.326489 23.0817 -0.0617691 21.968 0.555001C20.8391 1.18212 20.4332 2.60401 21.0607 3.73318C21.0786 3.76513 21.0984 3.79586 21.1206 3.82507L26.6785 11.1661H13.2964L18.8543 3.82507C18.8763 3.79586 18.8963 3.76513 18.9143 3.73318C19.5402 2.60674 19.1388 1.18364 18.006 0.554393C16.8948 -0.0611605 15.4927 0.326793 14.8549 1.41671L7.76863 11.1661H3.16218C1.44423 11.1661 0.0463867 12.5639 0.0463867 14.2819C0.0463867 15.6368 0.925747 16.8165 2.16446 17.234C2.29651 17.3362 2.46143 17.3977 2.64095 17.3977C2.67686 17.3977 2.71063 17.3998 2.74593 17.4047C3.08124 17.4497 3.34688 17.7041 3.40773 18.037L6.05768 32.6161C6.26002 33.7276 7.22702 34.5346 8.3571 34.5346H31.6178C32.7479 34.5346 33.7149 33.7276 33.9173 32.6158L36.5672 18.0373C36.6281 17.7041 36.894 17.4497 37.2305 17.4047C37.2646 17.3998 37.2984 17.3977 37.334 17.3977C37.5147 17.3977 37.6809 17.3356 37.8129 17.2321C39.0525 16.8119 39.9286 15.6344 39.9286 14.2819C39.9286 12.5639 38.5307 11.1661 36.8128 11.1661ZM22.4013 2.93567C22.2233 2.56719 22.3614 2.11838 22.7235 1.91756C23.1005 1.70852 23.5758 1.84331 23.7836 2.21788C23.7988 2.24587 23.8162 2.27265 23.8347 2.29821L30.2802 11.1661H28.6323L22.4013 2.93567ZM16.1402 2.29851C16.1588 2.27295 16.1755 2.24648 16.191 2.21909C16.3994 1.84422 16.875 1.70913 17.2505 1.91695C17.6132 2.11838 17.7519 2.56658 17.5736 2.93567L11.3427 11.1661H9.6947L16.1402 2.29851ZM36.8128 15.8398H23.1033C22.673 15.8398 22.3243 16.1885 22.3243 16.6187C22.3243 17.049 22.673 17.3898 23.1033 17.3898H35.1301C35.0893 17.506 35.0571 17.6265 35.0346 17.7506L32.3843 32.3371C32.3171 32.7077 31.9945 32.9767 31.6178 32.9767H8.3571C7.9801 32.9767 7.65787 32.7077 7.59032 32.3374L4.94037 17.7582C4.91786 17.6341 4.8856 17.5136 4.84483 17.3977H16.8717C17.3019 17.3977 17.6506 17.049 17.6506 16.6187C17.6506 16.1885 17.3019 15.8398 16.8717 15.8398H3.16218C2.29591 15.8398 1.60428 15.1338 1.60428 14.2819C1.60428 13.4229 2.30321 12.724 3.16218 12.724H36.8128C37.6717 12.724 38.3707 13.4229 38.3707 14.2819C38.3707 15.1469 37.6629 15.8398 36.8128 15.8398Z" fill="#023C40"/>
<path d="M19.9877 19.7344C18.6991 19.7344 17.6509 20.7826 17.6509 22.0712V28.3028C17.6509 29.5914 18.6991 30.6397 19.9877 30.6397C21.2763 30.6397 22.3246 29.5914 22.3246 28.3028V22.0712C22.3246 20.7802 21.2788 19.7344 19.9877 19.7344ZM20.7667 28.3028C20.7667 28.7325 20.4174 29.0818 19.9877 29.0818C19.5581 29.0818 19.2088 28.7325 19.2088 28.3028V22.0712C19.2088 21.6416 19.5581 21.2923 19.9877 21.2923C20.4177 21.2923 20.7667 21.6413 20.7667 22.0712V28.3028Z" fill="#023C40"/>
<path d="M27.7768 30.6397C29.0654 30.6397 30.1136 29.5914 30.1136 28.3028V22.0712C30.1136 20.7802 29.0678 19.7344 27.7768 19.7344C26.4882 19.7344 25.4399 20.7826 25.4399 22.0712V28.3028C25.4399 29.5914 26.4882 30.6397 27.7768 30.6397ZM26.9978 22.0712C26.9978 21.6416 27.3471 21.2923 27.7768 21.2923C28.2067 21.2923 28.5557 21.6413 28.5557 22.0712V28.3028C28.5557 28.7325 28.2064 29.0818 27.7768 29.0818C27.3471 29.0818 26.9978 28.7325 26.9978 28.3028V22.0712Z" fill="#023C40"/>
<path d="M12.1979 19.7344C10.9093 19.7344 9.86108 20.7826 9.86108 22.0712V28.3028C9.86108 29.5914 10.9093 30.6397 12.1979 30.6397C13.4865 30.6397 14.5348 29.5914 14.5348 28.3028V22.0712C14.5348 20.7802 13.489 19.7344 12.1979 19.7344ZM12.9769 28.3028C12.9769 28.7325 12.6276 29.0818 12.1979 29.0818C11.7683 29.0818 11.419 28.7325 11.419 28.3028V22.0712C11.419 21.6416 11.7683 21.2923 12.1979 21.2923C12.6279 21.2923 12.9769 21.641 12.9769 22.0712V28.3028Z" fill="#023C40"/>
</svg>
