<svg width="31" height="31" viewBox="0 0 31 31" fill="none" xmlns="http://www.w3.org/2000/svg">
<g clip-path="url(#clip0)">
<path d="M15.1785 14.8465C18.5536 14.8465 21.2899 11.5232 21.2899 7.42356C21.2899 3.32386 20.3915 0.000488281 15.1785 0.000488281C9.96552 0.000488281 9.06699 3.32386 9.06699 7.42356C9.06699 11.5232 11.8033 14.8465 15.1785 14.8465Z" fill="#131515"/>
<path d="M3.63521 26.1814C3.63416 25.93 3.63312 26.1106 3.63521 26.1814V26.1814Z" fill="#131515"/>
<path d="M26.7207 26.376C26.724 26.3075 26.7219 25.9012 26.7207 26.376V26.376Z" fill="#131515"/>
<path d="M26.7077 25.8808C26.5945 18.7391 25.6618 16.7041 18.5244 15.416C18.5244 15.416 17.5197 16.6963 15.178 16.6963C12.8362 16.6963 11.8313 15.416 11.8313 15.416C4.77184 16.6901 3.78241 18.6949 3.65232 25.6487C3.64165 26.2166 3.6367 26.2464 3.6348 26.1805C3.63523 26.304 3.63575 26.5325 3.63575 26.9308C3.63575 26.9308 5.33499 30.3563 15.178 30.3563C25.0207 30.3563 26.7202 26.9308 26.7202 26.9308C26.7202 26.6749 26.7203 26.4969 26.7206 26.3758C26.7187 26.4166 26.7149 26.3376 26.7077 25.8808Z" fill="#131515"/>
</g>
<defs>
<clipPath id="clip0">
<rect width="30.356" height="30.356" fill="white"/>
</clipPath>
</defs>
</svg>
